<svg width="101" height="148" viewBox="0 0 101 148" fill="none" xmlns="http://www.w3.org/2000/svg">
<g filter="url(#filter0_f_706_991)">
<path d="M78.6371 74.5579C78.9688 73.7593 79.3288 72.9717 79.7408 72.167C80.0786 71.63 82.2124 69.8937 81.9366 69.6397C81.6608 69.3858 80.1295 70.5385 80.1295 70.5385C80.1295 70.5385 81.0514 67.7815 80.8325 67.5494C80.6136 67.3172 79.8593 66.9166 79.4437 67.0533C79.0281 67.19 77.3359 68.3551 77.1923 68.9296C77.0276 69.9774 76.9669 70.991 76.963 72.0265C77.0013 72.1153 76.1128 74.9221 76.2129 75.0716C76.3131 75.2212 78.0768 75.0464 78.6371 74.5579Z" fill="#CCE7E9"/>
<path d="M83.8783 86.6427C83.8783 86.6427 79.951 82.1354 79.6322 80.9019C79.3133 79.6685 79.1931 74.0302 79.1931 74.0302C79.1931 74.0302 76.4536 73.9785 75.5604 75.043C75.5604 75.043 74.4289 81.0525 74.718 82.9041C75.007 84.7557 77.2917 89.9657 78.4196 90.3246C79.5475 90.6835 83.8783 86.6427 83.8783 86.6427Z" fill="#CCE7E9"/>
<path d="M41.1111 131.739C41.1111 131.739 40.7045 130.028 38.764 129.875C36.8235 129.723 36.1727 130.992 36.5571 132.102C36.9416 133.213 38.6328 137.158 39.799 137.605C40.9653 138.053 42.0204 137.199 42.5895 136.566C43.1585 135.932 44.6926 133.521 44.6926 133.521" fill="#CCE7E9"/>
<path d="M42.0348 131.983C41.8937 132.151 41.6575 132.208 41.5103 132.115C41.4819 132.104 41.4534 132.093 41.4485 132.054C41.1394 131.75 40.8302 131.446 40.5965 131.097C40.5965 131.097 39.2596 130.584 38.9514 132.207C38.6431 133.829 41.1585 135.313 42.4399 135.175C43.7212 135.037 44.3226 133.38 44.3226 133.38" fill="#CCE7E9"/>
<path d="M35.6775 133.061C35.6775 133.061 35.2708 131.349 33.3303 131.197C31.3898 131.045 30.739 132.313 31.1235 133.424C31.5079 134.534 33.1991 138.479 34.3654 138.927C35.5316 139.375 36.5868 138.521 37.1323 137.915C37.6778 137.31 39.2354 134.871 39.2354 134.871" fill="#CCE7E9"/>
<path d="M36.6014 133.304C36.4604 133.472 36.2241 133.53 36.077 133.436C36.0485 133.425 36.0201 133.414 36.0151 133.375C35.706 133.072 35.3968 132.768 35.1631 132.419C35.1631 132.419 33.8262 131.906 33.518 133.528C33.2097 135.15 35.7016 136.662 37.0065 136.496C38.3113 136.331 38.8892 134.701 38.8892 134.701" fill="#CCE7E9"/>
<path d="M65.4246 96.6685C64.1234 97.5022 51.7155 111.886 48.7886 115.688C45.8616 119.49 36.6535 133.287 36.6535 133.287C36.6535 133.287 36.3848 135.221 38.2424 135.786C40.1 136.351 40.8819 134.836 40.8819 134.836C40.8819 134.836 42.2544 136.696 45.0784 134.855C46.1533 134.156 67.1992 111.719 69.4086 109.086C72.5582 105.332 73.9466 101.347 74.3465 99.1675" fill="#CCE7E9"/>
<path d="M40.83 134.853C40.83 134.853 66.4446 105.985 67.031 105.062C67.6174 104.139 61.933 111.586 60.2357 113.564C59.037 114.993 42.7833 132.974 40.83 134.853Z" fill="#CCE7E9"/>
<path d="M57.3359 102.23L56.8527 93.3042L48.0126 96.3547L48.6789 105.017L57.3359 102.23Z" fill="#CCE7E9"/>
<path d="M65.4244 96.6686C65.4244 96.6686 72.585 85.7147 76.4206 84.5946C80.2561 83.4746 87.495 84.4387 87.8052 85.8169C88.1154 87.1951 77.1999 97.5594 74.3463 99.1675C71.4927 100.776 65.5392 97.7866 65.4244 96.6686Z" fill="#CCE7E9"/>
<path d="M84.9189 77.7834C84.7445 77.9017 80.2555 81.5484 81.6627 82.8293C83.07 84.1102 85.2731 82.0672 85.5662 82.0316C85.8594 81.996 86.5928 82.0183 86.9639 81.5312C87.3351 81.0441 86.6004 80.7991 86.6004 80.7991C86.6004 80.7991 87.3032 79.5134 86.8779 78.7206C86.4525 77.9277 84.9189 77.7834 84.9189 77.7834Z" fill="#CCE7E9"/>
<path d="M85.7187 79.6089C85.7187 79.6089 84.1307 79.0363 84.0122 78.102C83.9233 77.4013 84.6284 76.5609 85.5684 76.2922C85.6204 76.2751 85.6723 76.258 85.7243 76.2409C85.7243 76.2409 86.1327 74.7682 87.5339 74.9357C87.5339 74.9357 88.5879 73.8589 90.4973 75.2585C92.4067 76.6581 93.1768 79.1016 91.4424 81.2134C89.708 83.3252 89.6671 83.6428 90.0071 84.4029C90.3471 85.163 88.5967 86.9353 86.5066 86.2441C84.4165 85.5529 81.8219 84.2977 82.3886 83.219C82.9552 82.1404 84.5852 82.6179 85.607 81.714C86.6288 80.81 86.2072 79.8334 85.7187 79.6089Z" fill="#CCE7E9"/>
<path d="M63.6268 94.0155C63.6268 94.0155 60.5717 95.1019 59.9756 95.0952C59.0059 95.1304 57.9941 95.2605 56.9874 95.4295C57.0504 95.713 57.033 96.0026 57.0156 96.2922L56.9921 96.3202C57.3088 96.2566 57.545 96.1991 57.4745 96.2831C57.263 96.5352 53.9777 97.9406 53.4632 98.1505C52.9486 98.3603 52.7852 99.6308 52.7852 99.6308C53.5271 100.36 55.5915 99.7822 56.8951 99.3938C58.1988 99.0054 59.9318 97.5227 60.3524 97.4249C60.7729 97.3271 64.1334 96.7283 64.6801 96.3456C65.2269 95.963 63.6268 94.0155 63.6268 94.0155Z" fill="#CCE7E9"/>
<path d="M75.2741 85.1544C74.0718 85.9149 73.2541 86.9343 72.2323 87.8382C71.5025 88.4839 70.7256 89.1857 69.9674 89.8204C69.2425 90.5051 68.4273 91.118 67.5454 91.6312C66.1254 92.3823 64.6522 92.9279 63.1939 93.5902C62.8303 93.7099 62.5049 93.9183 62.2081 94.1376C61.6106 94.7601 60.8792 96.8865 63.3429 97.536C65.2563 97.0483 67.1598 96.4828 69.0721 95.7725C71.5978 94.7793 76.9763 90.2518 78.2493 88.5555C79.1041 87.4023 79.536 85.9015 78.8782 84.9824C78.3972 84.3904 77.3793 84.2589 76.3453 84.6397C75.9816 84.7593 75.5994 84.9459 75.2741 85.1544Z" fill="#CCE7E9"/>
<path d="M65.5393 96.9349C65.5393 96.9349 68.7848 96.0698 70.0391 95.2921C71.2934 94.5144 73.3764 93.0179 73.3764 93.0179C73.3764 93.0179 68.3109 97.6655 66.9219 98.0211C66.9219 98.0211 65.6592 97.2401 65.5393 96.9349Z" fill="#CCE7E9"/>
</g>
<path d="M19.3643 12.7539C18.833 11.278 18.3607 9.80204 17.9474 8.26706C17.7703 7.20438 18.833 3.13079 18.0655 2.89464C17.298 2.65849 16.4124 5.43326 16.4124 5.43326C16.4124 5.43326 14.2281 0.474103 13.5786 0.237952C12.9292 0.00180228 11.2171 -0.175307 10.7448 0.296994C10.2725 0.769294 9.15083 3.66213 9.68217 4.66577C10.8039 6.43689 12.0437 8.08995 13.4015 9.743C13.5786 9.86107 15.8811 14.8793 16.2353 15.0564C16.5896 15.2335 19.1282 13.8756 19.3643 12.7539Z" fill="#FFC9B5"/>
<path d="M43.5106 28.8121C43.5106 28.8121 31.4079 24.03 29.2826 22.2589C27.1572 20.4878 19.5414 11.5731 19.5414 11.5731C19.5414 11.5731 15.1726 13.1671 15.1726 15.4106C15.1726 15.4106 21.3125 25.6831 24.2054 28.4579C27.0982 31.2326 37.5478 38.14 39.7913 38.0219C42.0347 37.9039 43.5106 28.8121 43.5106 28.8121Z" fill="#DD8C2A"/>
<path d="M35.7767 126.873C35.7767 126.873 32.8839 124.394 29.6368 125.338C26.3898 126.283 27.0392 128.704 29.1055 130.239C31.1718 131.774 39.0238 137.028 41.4443 137.028C43.8649 137.028 44.3962 135.021 44.4552 133.663C44.5143 132.305 43.7468 127.523 43.7468 127.523" fill="#768CFB"/>
<path d="M37.5479 126.696C37.5479 127.051 37.2527 127.287 36.8985 127.228C36.8394 127.228 36.7804 127.228 36.7213 127.169C35.8358 126.873 34.9502 126.578 34.1237 126.165C34.1237 126.165 31.3489 126.165 33.002 128.94C34.655 131.715 40.5588 132.541 42.3889 131.537C44.2191 130.534 42.9793 127.523 42.9793 127.523" fill="#FFC9B5"/>
<path d="M28.9874 132.305C28.9874 132.305 26.0945 129.825 22.8475 130.77C19.6004 131.715 20.2498 134.135 22.3161 135.67C24.3825 137.205 32.2344 142.459 34.655 142.459C37.0755 142.459 37.6069 140.452 37.6659 139.153C37.7249 137.854 36.9575 133.013 36.9575 133.013" fill="#768CFB"/>
<path d="M30.7586 132.128C30.7586 132.482 30.4634 132.718 30.1091 132.659C30.0501 132.659 29.9911 132.659 29.932 132.6C29.0465 132.305 28.1609 132.01 27.3344 131.596C27.3344 131.596 24.5596 131.596 26.2127 134.371C27.8657 137.146 33.7695 138.032 35.5996 136.969C37.4298 135.906 36.19 132.954 36.19 132.954" fill="#FFC9B5"/>
<path d="M27.7477 56.0874C26.8031 58.2128 26.2718 88.7352 26.685 96.5872C27.0983 104.439 30.8177 132.069 30.8177 132.069C30.8177 132.069 32.943 135.316 36.6033 135.08C40.2637 134.844 39.4962 131.951 39.4962 131.951C39.4962 131.951 44.1011 134.076 46.1084 129.412C46.8759 127.641 50.3591 78.994 50.3591 73.4445C50.3591 65.5335 47.2891 58.3309 45.0457 54.6115" fill="#5ED18D"/>
<path d="M39.4371 132.01C39.4371 132.01 41.6215 70.3155 41.3263 68.4853C41.0311 66.6551 41.9167 82.0049 41.8577 86.1965C41.8577 89.2075 40.0275 127.818 39.4371 132.01Z" fill="#146666"/>
<path d="M22.3752 69.9022L9.85926 55.9694L0 66.2419L12.4569 79.6434L22.3752 69.9022Z" fill="#768CFB"/>
<path d="M27.7477 56.0874C27.7477 56.0874 24.5596 34.2436 29.1055 30.1109C33.6514 25.9783 46.2855 23.0855 48.5879 25.0927C50.8904 27.1 47.4072 50.3018 45.0457 54.6115C42.6842 58.9212 29.4007 57.7995 27.7477 56.0874Z" fill="#F9AA43"/>
<path d="M33.4743 14.0527C33.3562 14.3479 31.1128 22.9083 35.0092 24.0891C38.9057 25.2698 39.6732 20.6649 40.0865 20.4287C40.4997 20.1926 41.6805 19.7793 41.6215 18.7757C41.5624 17.7721 40.0865 17.8311 40.0865 17.8311C40.0865 17.8311 39.4961 15.3515 37.784 14.3479C36.0719 13.3442 33.4743 14.0527 33.4743 14.0527Z" fill="#FFC9B5"/>
<path d="M37.1347 16.4733C37.1347 16.4733 33.8876 16.5323 32.4707 15.1154C31.4081 14.0528 31.4081 12.2816 32.5298 11.278C32.5888 11.2189 32.6478 11.1599 32.7069 11.1009C32.7069 11.1009 31.408 8.50322 33.8286 7.91285C33.8286 7.91285 34.0647 5.55135 38.9058 6.61403C43.7469 7.6767 48.1747 11.1009 48.2337 15.5287C48.2928 19.9565 48.647 20.4878 50.182 21.4915C51.717 22.4951 51.3037 26.3916 47.112 26.5687C42.9204 26.7458 37.1937 26.3326 36.6624 24.2662C36.1311 22.1999 39.3191 21.9638 39.7323 19.8975C40.1456 17.8312 38.1974 16.5323 37.1347 16.4733Z" fill="#2C1D1A"/>
<path d="M21.4306 52.9584C21.4306 52.9584 18.0655 56.5597 17.1209 56.914C15.645 57.5634 14.228 58.3899 12.8702 59.2755C13.3425 59.6887 13.6967 60.161 14.0509 60.6333V60.6924C14.4642 60.3972 14.7594 60.161 14.7594 60.3381C14.7594 60.8695 11.4533 65.1202 10.922 65.7696C10.3906 66.419 11.8075 68.5444 11.8075 68.5444C13.9329 69.2528 16.4124 67.0684 17.9474 65.6515C19.4824 64.2346 20.2499 60.8104 20.7812 60.3972C21.3125 59.9839 25.7994 56.973 26.1536 56.0284C26.5079 55.0838 21.4306 52.9584 21.4306 52.9584Z" fill="#FFC9B5"/>
<path d="M28.0428 31.7049C27.1572 33.6532 27.2163 35.7785 26.803 37.8448C26.5078 39.3208 26.2126 40.9148 25.8584 42.3907C25.6223 43.9257 25.15 45.4016 24.4415 46.7595C23.2017 48.8258 21.6077 50.5969 20.1908 52.5452C19.7775 52.9584 19.5414 53.4898 19.3643 54.0211C19.2462 55.379 20.8993 59.2164 25.6223 58.7441C27.9838 56.7959 30.2272 54.7296 32.2935 52.4271C34.9502 49.2981 37.4298 38.7894 37.1936 35.3062C37.0165 32.9447 35.7177 30.288 33.4743 29.2253C31.9393 28.5759 30.1681 28.9892 29.0464 30.229C28.6332 30.6422 28.279 31.1736 28.0428 31.7049Z" fill="#F9AA43"/>
<path d="M28.2789 56.4417C28.2789 56.4417 32.2345 53.0766 33.1791 51.0693C34.1237 49.062 35.4225 45.4017 35.4225 45.4017C35.4225 45.4017 33.5923 55.9104 31.8802 57.3273C31.8802 57.3273 28.8693 56.855 28.2789 56.4417Z" fill="#DD8C2A"/>
<defs>
<filter id="filter0_f_706_991" x="23.0179" y="59.0255" width="77.3919" height="88.0264" filterUnits="userSpaceOnUse" color-interpolation-filters="sRGB">
<feFlood flood-opacity="0" result="BackgroundImageFix"/>
<feBlend mode="normal" in="SourceGraphic" in2="BackgroundImageFix" result="shape"/>
<feGaussianBlur stdDeviation="4" result="effect1_foregroundBlur_706_991"/>
</filter>
</defs>
</svg>
